# xmcd CD database file
#
# Track frame offsets:
#	150
#	12988
#	25603
#	40317
#	53852
#	63733
#	76620
#	87617
#	98926
#	112035
#	122205
#	137893
#	149706
#	165979
#
# Disc length: 2378 seconds
#
# Revision: 0
# Processed by: cddbd v1.5.1PL0 Copyright (c) Steve Scherf et al.
# Submitted via: CDex 1.50beta10
#
DISCID=c309480e
DTITLE=Slim Whitman - Slim Whitman (Wanted)
DYEAR=2003
DGENRE=Country
TTITLE0=Release Me
TTITLE1=Tennessee Waltz
TTITLE2=Mocking Bird Hill
TTITLE3=You are My Sunshine
TTITLE4=Cara Mia
TTITLE5=Red Sails in the Sunset
TTITLE6=The Wayward Wind
TTITLE7=It is No Secret
TTITLE8=Till I Waltz with You
TTITLE9=Anytime
TTITLE10=Down in the Valley
TTITLE11=Now is the Hour
TTITLE12=The Three Bells
TTITLE13=Half as Much
EXTD=YEAR: 2003
EXTT0=
EXTT1=
EXTT2=
EXTT3=
EXTT4=
EXTT5=
EXTT6=
EXTT7=
EXTT8=
EXTT9=
EXTT10=
EXTT11=
EXTT12=
EXTT13=
PLAYORDER=
